<svg width="1440" height="686" viewBox="0 0 1440 686" fill="none" xmlns="http://www.w3.org/2000/svg">
<path d="M995.224 824.669L0.500023 581.5L394.371 913.603M995.224 824.669L394.371 913.603M995.224 824.669L1190.35 605.747L1238.34 381.316L1617.45 129.194L1693.62 400.356L563.906 777.444L870.728 814.17L1308.94 411.429L1090.72 329.999L893.468 484.004L209.801 562.347L319.535 666.094L0.500016 683.5L466.107 806.749L431.867 690.541L654.5 630.232L839.5 685.453L1284.3 129.433L1071.09 668.741L1376.69 678.23L1424.9 114.79L1288.03 617.539L1283.64 759.019L1021.7 511.356L1439.5 4.00016L1415.59 414.74L814.263 602.828L971.05 373.016L452.731 630.232L708 694.538L805.233 564.93L206.162 611.329L398.716 808.046L215.549 758.074L134.201 892.643L394.371 913.603" stroke="white" stroke-width="2"/>
</svg>
